<?xml version="1.0" encoding="utf-8"?>
<!-- Generator: Adobe Illustrator 18.0.0, SVG Export Plug-In . SVG Version: 6.00 Build 0)  -->
<!DOCTYPE svg PUBLIC "-//W3C//DTD SVG 1.1//EN" "http://www.w3.org/Graphics/SVG/1.1/DTD/svg11.dtd">
<svg version="1.1" id="Layer_1" xmlns="http://www.w3.org/2000/svg" xmlns:xlink="http://www.w3.org/1999/xlink" x="0px" y="0px"
	 viewBox="0 0 50 50" enable-background="new 0 0 50 50" xml:space="preserve">
<circle fill="#FFFFFF" cx="25" cy="25" r="25"/>
<path fill="#3B404F" d="M23.1,24.3c0,0,1.9-0.1,1.9-2.4c0-2.2-1.5-3.3-3.5-3.3h-3.6h-0.1H15v12.4h2.7h0.1h3.6c0,0,3.9,0.1,3.9-3.7
	C25.4,27.4,25.6,24.3,23.1,24.3z M21,20.9h0.5c0,0,0.9,0,0.9,1.3c0,1.3-0.5,1.5-1.1,1.5h-3.4v-2.8H21z M21.3,28.9h-3.4v-3.3h3.6
	c0,0,1.3,0,1.3,1.7C22.8,28.7,21.8,28.9,21.3,28.9z M30.7,21.8c-4.8,0-4.8,4.8-4.8,4.8s-0.3,4.7,4.8,4.7c0,0,4.2,0.2,4.2-3.3h-2.2
	c0,0,0.1,1.3-2,1.3c0,0-2.2,0.1-2.2-2.2H35C35,27.2,35.7,21.8,30.7,21.8z M28.5,25.6c0,0,0.3-1.9,2.2-1.9c1.9,0,1.9,1.9,1.9,1.9
	H28.5z M28,19.4h5.1v1.5H28V19.4z"/>
</svg>
