<?xml version="1.0" encoding="utf-8"?>
<!-- Generator: Adobe Illustrator 18.0.0, SVG Export Plug-In . SVG Version: 6.00 Build 0)  -->
<!DOCTYPE svg PUBLIC "-//W3C//DTD SVG 1.1//EN" "http://www.w3.org/Graphics/SVG/1.1/DTD/svg11.dtd">
<svg version="1.1" id="Layer_1" xmlns="http://www.w3.org/2000/svg" xmlns:xlink="http://www.w3.org/1999/xlink" x="0px" y="0px"
	 viewBox="0 0 50 50" enable-background="new 0 0 50 50" xml:space="preserve">
<circle fill="#FFFFFF" cx="25" cy="25" r="25"/>
<path fill="#3B404F" d="M15.3,21.6h4.2V35h-4.2V21.6z M17.4,15c1.3,0,2.4,1.1,2.4,2.4c0,1.3-1.1,2.4-2.4,2.4c-1.3,0-2.4-1.1-2.4-2.4
	C15,16.1,16.1,15,17.4,15 M22.1,35h4.1v-6.6c0-1.7,0.3-3.4,2.5-3.4c2.1,0,2.2,2,2.2,3.5V35H35v-7.3c0-3.6-0.8-6.4-5-6.4
	c-2,0-3.4,1.1-3.9,2.2h-0.1v-1.8h-4V35z"/>
</svg>
