<?xml version="1.0" encoding="utf-8"?>
<!-- Generator: Adobe Illustrator 18.0.0, SVG Export Plug-In . SVG Version: 6.00 Build 0)  -->
<!DOCTYPE svg PUBLIC "-//W3C//DTD SVG 1.1//EN" "http://www.w3.org/Graphics/SVG/1.1/DTD/svg11.dtd">
<svg version="1.1" id="Layer_1" xmlns="http://www.w3.org/2000/svg" xmlns:xlink="http://www.w3.org/1999/xlink" x="0px" y="0px"
	 viewBox="0 0 50 50" enable-background="new 0 0 50 50" xml:space="preserve">
<circle fill="#FFFFFF" cx="25" cy="25" r="25"/>
<path fill="#00BCDA" d="M26.4,28.9c-0.4,0.4-0.8,0.6-1.4,0.6c-0.5,0-1-0.2-1.4-0.6l-3.2-3.2L15,31.1v0.1c0,0.5,0.4,0.8,0.8,0.8h18.3
	c0.5,0,0.8-0.4,0.8-0.8v-0.1l-5.4-5.4L26.4,28.9L26.4,28.9z M15,20.3v9.3l4.7-4.7L15,20.3L15,20.3z M34.2,17.9H15.8
	c-0.5,0-0.8,0.4-0.8,0.8v0.1l9.4,9.4c0.2,0.2,0.4,0.3,0.6,0.3c0.2,0,0.5-0.1,0.6-0.3l9.4-9.4v-0.1C35,18.3,34.6,17.9,34.2,17.9
	L34.2,17.9z M35,29.7v-9.3L30.3,25L35,29.7"/>
</svg>
