<?xml version="1.0" encoding="utf-8"?>
<!-- Generator: Adobe Illustrator 18.0.0, SVG Export Plug-In . SVG Version: 6.00 Build 0)  -->
<!DOCTYPE svg PUBLIC "-//W3C//DTD SVG 1.1//EN" "http://www.w3.org/Graphics/SVG/1.1/DTD/svg11.dtd">
<svg version="1.1" id="Layer_1" xmlns="http://www.w3.org/2000/svg" xmlns:xlink="http://www.w3.org/1999/xlink" x="0px" y="0px"
	 viewBox="0 0 50 50" enable-background="new 0 0 50 50" xml:space="preserve">
<circle fill="#FFFFFF" cx="25" cy="25" r="25"/>
<path fill="#00BCDA" d="M37.3,17.4c-0.9,0.4-1.9,0.7-2.9,0.8c1-0.6,1.8-1.6,2.2-2.8c-1,0.6-2,1-3.2,1.2c-0.9-1-2.2-1.6-3.7-1.6
	c-2.8,0-5,2.3-5,5c0,0.4,0,0.8,0.1,1.1C20.6,21,16.9,19,14.4,16c-0.4,0.7-0.7,1.6-0.7,2.5c0,1.7,0.9,3.3,2.2,4.2
	c-0.8,0-1.6-0.3-2.3-0.6c0,0,0,0,0,0.1c0,2.4,1.7,4.5,4,4.9c-0.4,0.1-0.9,0.2-1.3,0.2c-0.3,0-0.6,0-0.9-0.1c0.6,2,2.5,3.5,4.7,3.5
	c-1.7,1.3-3.9,2.2-6.2,2.2c-0.4,0-0.8,0-1.2-0.1c2.2,1.4,4.9,2.3,7.7,2.3c9.3,0,14.3-7.7,14.3-14.3c0-0.2,0-0.4,0-0.7
	C35.7,19.3,36.6,18.4,37.3,17.4z"/>
</svg>
