<?xml version="1.0" encoding="utf-8"?>
<!-- Generator: Adobe Illustrator 18.0.0, SVG Export Plug-In . SVG Version: 6.00 Build 0)  -->
<!DOCTYPE svg PUBLIC "-//W3C//DTD SVG 1.1//EN" "http://www.w3.org/Graphics/SVG/1.1/DTD/svg11.dtd">
<svg version="1.1" id="Layer_1" xmlns="http://www.w3.org/2000/svg" xmlns:xlink="http://www.w3.org/1999/xlink" x="0px" y="0px"
	 width="100px" height="8.8px" viewBox="0 0 100 8.8" style="enable-background:new 0 0 100 8.8;" xml:space="preserve">
<g>
	<path style="fill:#3A3F4E;" d="M8.4,8.7H7.1L6,6.1H2.3L1.3,8.7H0l3.7-8.6h0.9L8.4,8.7z M2.8,5h2.7L4.1,1.9L2.8,5z"/>
	<path style="fill:#3A3F4E;" d="M17.7,8.7h-1.1l-5.7-6.6v6.6H9.7V0.1h1l5.8,6.6V0.1h1.2V8.7z"/>
	<path style="fill:#3A3F4E;" d="M20,0.1h3.3c3.2,0,4.6,2.3,4.6,4.3c0,2.2-1.7,4.3-4.5,4.3H20V0.1z M21.2,7.6h2
		c2.8,0,3.4-2.1,3.4-3.2c0-1.7-1.1-3.2-3.5-3.2h-1.9V7.6z"/>
	<path style="fill:#3A3F4E;" d="M32.1,0.1c1.7,0,2.8,0.9,2.8,2.4c0,1-0.5,1.7-1.4,2.1c0.8,0.5,1.3,1.3,1.9,2.4
		c0.4,0.6,0.6,0.9,1.2,1.7H35l-1.1-1.8c-1.1-1.8-1.6-2-2.3-2h-0.5v3.7h-1.2V0.1H32.1z M31.1,3.9h0.8c1.3,0,1.7-0.7,1.7-1.4
		c0-0.8-0.5-1.3-1.7-1.3h-0.8V3.9z"/>
	<path style="fill:#3A3F4E;" d="M42.7,1.2h-3.6v2.6h3.5v1.1h-3.5v2.7h3.7v1.1h-5V0.1h4.9V1.2z"/>
	<path style="fill:#3A3F4E;" d="M53.3,8.7H53l-2.8-7l-2.8,7h-0.2l-3.5-8.6h1.2L47.3,6l2.4-5.9h1.2L53.2,6l2.3-5.9h1.2L53.3,8.7z"/>
	<path style="fill:#3A3F4E;" d="M63.3,7.6h3.9v1.1h-5.1V0.1h1.2V7.6z"/>
	<path style="fill:#3A3F4E;" d="M72.9,0c2.8,0,4.6,2,4.6,4.4c0,2.3-1.7,4.4-4.6,4.4c-2.8,0-4.6-2.1-4.6-4.4C68.3,2,70.1,0,72.9,0z
		 M72.9,7.7c1.9,0,3.3-1.4,3.3-3.3c0-1.9-1.4-3.3-3.3-3.3c-1.9,0-3.3,1.4-3.3,3.3C69.6,6.3,71,7.7,72.9,7.7z"/>
	<path style="fill:#3A3F4E;" d="M82.1,0.1c1.9,0,2.7,1.1,2.7,2.5c0,1.3-0.9,2.4-2.9,2.4h-1.3v3.7h-1.2V0.1H82.1z M80.6,3.9H82
		c0.9,0,1.5-0.5,1.5-1.3c0-0.6-0.3-1.3-1.5-1.3h-1.4V3.9z"/>
	<path style="fill:#3A3F4E;" d="M91.2,1.2h-3.6v2.6H91v1.1h-3.5v2.7h3.7v1.1h-5V0.1h4.9V1.2z"/>
	<path style="fill:#3A3F4E;" d="M92.6,1.2V0.1h7.4l-5.4,7.4h5.4v1.1h-7.7l5.4-7.4H92.6z"/>
</g>
</svg>
